HIERARCHY
ROOT Hips
{
  OFFSET 54.5865 94.0786 23.5498
  CHANNELS 6 Xposition Yposition Zposition Zrotation Xrotation Yrotation
  JOINT spine
  {
    OFFSET 0 7.4756 0.429885
    CHANNELS 3 Zrotation Xrotation Yrotation
    JOINT spine1
    {
      OFFSET 0 9.92301 0
      CHANNELS 3 Zrotation Xrotation Yrotation
      JOINT spine2
      {
        OFFSET 0 9.50804 0
        CHANNELS 3 Zrotation Xrotation Yrotation
        JOINT Neck
        {
          OFFSET 0 24.4111 1.16384
          CHANNELS 3 Zrotation Xrotation Yrotation
          JOINT Head
          {
            OFFSET 0 7.37523 0
            CHANNELS 3 Zrotation Xrotation Yrotation
            End Site
            {
              OFFSET 0 17.8522 -5.88741
            }
          }
        }
        JOINT RightShoulder
        {
          OFFSET -4.00356 10.2679 -0.557468
          CHANNELS 3 Zrotation Xrotation Yrotation
          JOINT RightArm
          {
            OFFSET 0 13.4673 0
            CHANNELS 3 Zrotation Xrotation Yrotation
            JOINT RightArmRoll
            {
              OFFSET 0 6.79858 0
              CHANNELS 3 Zrotation Xrotation Yrotation
              JOINT RightForeArm
              {
                OFFSET 0 19.8018 0
                CHANNELS 3 Zrotation Xrotation Yrotation
                JOINT RightForeArmRoll
                {
                  OFFSET 0 7.62905 0
                  CHANNELS 3 Zrotation Xrotation Yrotation
                  JOINT RightHand
                  {
                    OFFSET 0 15.3098 0
                    CHANNELS 3 Zrotation Xrotation Yrotation
                    End Site
                    {
                      OFFSET 0 0 0
                    }
                  }
                }
              }
            }
          }
        }
        JOINT LeftShoulder
        {
          OFFSET 4.00356 10.2679 -0.557468
          CHANNELS 3 Zrotation Xrotation Yrotation
          JOINT LeftArm
          {
            OFFSET 0 13.4673 0
            CHANNELS 3 Zrotation Xrotation Yrotation
            JOINT LeftArmRoll
            {
              OFFSET 0 6.79857 0
              CHANNELS 3 Zrotation Xrotation Yrotation
              JOINT LeftForeArm
              {
                OFFSET 0 19.8018 0
                CHANNELS 3 Zrotation Xrotation Yrotation
                JOINT LeftForeArmRoll
                {
                  OFFSET 0 7.62905 0
                  CHANNELS 3 Zrotation Xrotation Yrotation
                  JOINT LeftHand
                  {
                    OFFSET 0 15.3098 0
                    CHANNELS 3 Zrotation Xrotation Yrotation
                    End Site
                    {
                      OFFSET 0 0 0
                    }
                  }
                }
              }
            }
          }
        }
      }
    }
  }
  JOINT RightUpLeg
  {
    OFFSET -6.62609 -1.21505 -1.01927
    CHANNELS 3 Zrotation Xrotation Yrotation
    JOINT RightUpLegRoll
    {
      OFFSET 0 17.9517 0
      CHANNELS 3 Zrotation Xrotation Yrotation
      JOINT RightLeg
      {
        OFFSET 0 -22.2304 0
        CHANNELS 3 Zrotation Xrotation Yrotation
        JOINT RightLegRoll
        {
          OFFSET 0 22.3032 0
          CHANNELS 3 Zrotation Xrotation Yrotation
          JOINT RightFoot
          {
            OFFSET 0 18.5636 0
            CHANNELS 3 Zrotation Xrotation Yrotation
            JOINT RightToeBase
            {
              OFFSET 0 15.5183 0
              CHANNELS 3 Zrotation Xrotation Yrotation
              End Site
              {
                OFFSET 0.00657761 7.51538 -0.866263
              }
            }
          }
        }
      }
    }
  }
  JOINT LeftUpLeg
  {
    OFFSET 6.62609 -1.21505 -1.01927
    CHANNELS 3 Zrotation Xrotation Yrotation
    JOINT LeftUpLegRoll
    {
      OFFSET 0 17.9518 0
      CHANNELS 3 Zrotation Xrotation Yrotation
      JOINT LeftLeg
      {
        OFFSET 0 22.2303 0
        CHANNELS 3 Zrotation Xrotation Yrotation
        JOINT LeftLegRoll
        {
          OFFSET 0 22.5093 0
          CHANNELS 3 Zrotation Xrotation Yrotation
          JOINT LeftFoot
          {
            OFFSET 0 18.3575 0
            CHANNELS 3 Zrotation Xrotation Yrotation
            JOINT LeftToeBase
            {
              OFFSET 0 15.5183 0
              CHANNELS 3 Zrotation Xrotation Yrotation
              End Site
              {
                OFFSET -0.029478 7.51538 -0.866263
              }
            }
          }
        }
      }
    }
  }
}
MOTION
Frames: 11
Frame Time: 0.00208333
54.3859 55.839 -17.1864 7.66661 -5.17766 5.10307 -1.66486 -3.35845 -0.64057 -3.35291 -2.71928 -1.14508 -3.33767 -1.076 -1.08866 -11.9796 46.4321 6.67652 9.27515 -16.8347 2.36585 80.3321 2.65075 -1.43764 83.6324 8.27228 20.022 4.1656e-007 1.84121e-007 -3.61842e-006 9.01906 7.02376 -1.47951 8.83646e-006 5.78448e-006 -3.00994 8.02904 -4.95147 0.697676 -89.1651 4.30864 2.06477 -71.2429 5.54856 -33.9109 1.58008e-005 -2.93677e-006 2.64796e-005 -0.749576 0.0103297 1.02173 4.50182e-006 -1.14581e-007 3.07551 -8.03017 -4.95137 -0.697637 152.353 81.3354 34.1728 180 3.05017e-005 178.149 -61.3159 81.1483 62.2754 1.89536e-007 -7.33855e-006 2.82109 -19.9739 65.3772 17.4099 8.53785 28.6776 -6.14516 175.804 78.6131 -13.2484 4.57705e-006 1.05463e-005 -2.20108 22.2782 -86.6829 25.1375 -5.18169e-006 -2.08293e-006 -2.25934 21.5298 63.0001 -15.4933 -8.35043 27.312 5.08462 
54.4005 55.8359 -17.1887 7.64988 -5.16748 5.11558 -1.65679 -3.35639 -0.640865 -3.33682 -2.71375 -1.14713 -3.32156 -1.07045 -1.09099 -12.1789 46.4626 6.79421 9.39491 -16.8531 2.4007 80.324 2.68634 -1.42305 83.6099 8.17902 20.0663 4.1656e-007 1.84121e-007 -3.61842e-006 9.00317 6.99156 -1.47645 8.83646e-006 5.78448e-006 -3.00994 8.02904 -4.95147 0.697676 -89.158 4.2726 2.07436 -71.2968 5.48313 -33.8641 1.58008e-005 -2.93677e-006 2.64796e-005 -0.793429 0.00673703 1.00826 4.50182e-006 -1.14581e-007 3.07071 -8.03017 -4.95137 -0.697637 152.29 81.3301 34.2471 180 3.05017e-005 178.149 -61.3067 81.1565 62.263 1.89536e-007 -7.33855e-006 2.82148 -20.0004 65.391 17.4191 8.53739 28.6728 -6.14198 175.775 78.6286 -13.205 4.57705e-006 1.05463e-005 -2.19989 22.2755 -86.6796 25.1335 -5.18169e-006 -2.08293e-006 -2.25794 21.5012 62.9847 -15.4853 -8.35078 27.3167 5.08786 
54.3924 55.8389 -17.1893 7.63437 -5.15611 5.12836 -1.64899 -3.35469 -0.641268 -3.32126 -2.70889 -1.14942 -3.30599 -1.06557 -1.09353 -12.3814 46.4937 6.91338 9.51789 -16.8732 2.43614 80.3145 2.72286 -1.40791 83.5891 8.08332 20.1115 4.1656e-007 1.84121e-007 -3.61842e-006 8.98692 6.95793 -1.47326 8.83646e-006 5.78448e-006 -3.00994 8.02904 -4.95147 0.697676 -89.1533 4.23681 2.08419 -71.3469 5.41463 -33.8182 1.58008e-005 -2.93677e-006 2.64796e-005 -0.837908 0.00139184 0.99431 4.50182e-006 -1.14581e-007 3.06573 -8.03017 -4.95137 -0.697637 152.221 81.3258 34.3271 180 3.05016e-005 178.149 -61.2959 81.1642 62.2493 1.89536e-007 -7.33855e-006 2.82192 -20.0282 65.4055 17.4287 8.53687 28.6678 -6.1386 175.74 78.6454 -13.1576 4.57705e-006 1.05463e-005 -2.19873 22.2682 -86.6765 25.1252 -5.18169e-006 -2.08293e-006 -2.25653 21.4724 62.9692 -15.4772 -8.35113 27.3213 5.09105 
54.3974 55.8339 -17.1919 7.61971 -5.14392 5.14133 -1.64138 -3.35325 -0.641747 -3.3061 -2.70451 -1.15186 -3.29081 -1.06117 -1.09623 -12.5861 46.5253 7.03362 9.64313 -16.8945 2.47201 80.3039 2.76003 -1.39239 83.5697 7.98591 20.1571 4.1656e-007 1.84121e-007 -3.61842e-006 8.97042 6.9233 -1.46999 8.83646e-006 5.78448e-006 -3.00994 8.02904 -4.95147 0.697676 -89.1503 4.2012 2.09418 -71.3943 5.34394 -33.7731 1.58008e-005 -2.93677e-006 2.64796e-005 -0.882827 -0.00518012 0.980036 4.50182e-006 -1.14581e-007 3.06064 -8.03017 -4.95137 -0.697637 152.146 81.3223 34.411 180 3.05016e-005 178.148 -61.284 81.1715 62.2348 1.89536e-007 -7.33855e-006 2.8224 -20.0567 65.4203 17.4386 8.53631 28.6626 -6.13508 175.702 78.663 -13.1073 4.57705e-006 1.05463e-005 -2.19758 22.2577 -86.6736 25.114 -5.18169e-006 -2.08293e-006 -2.25513 21.4437 62.9538 -15.4692 -8.35148 27.3258 5.09422 
54.3941 55.8379 -17.192 7.60554 -5.13125 5.15442 -1.63388 -3.35195 -0.642269 -3.29115 -2.70039 -1.15439 -3.27584 -1.05704 -1.09901 -12.7922 46.5571 7.15454 9.76968 -16.9165 2.50813 80.2927 2.79758 -1.37664 83.5509 7.88755 20.2032 4.1656e-007 1.84121e-007 -3.61842e-006 8.95379 6.88809 -1.46666 8.83646e-006 5.78448e-006 -3.00994 8.02904 -4.95147 0.697676 -89.1482 4.16569 2.10426 -71.4402 5.27198 -33.7284 1.58008e-005 -2.93677e-006 2.64796e-005 -0.927998 -0.0124531 0.965574 4.50182e-006 -1.14581e-007 3.05548 -8.03017 -4.95137 -0.697637 152.069 81.3192 34.4972 180 3.05016e-005 178.148 -61.2714 81.1787 62.2197 1.89536e-007 -7.33855e-006 2.82289 -20.0857 65.4354 17.4487 8.53572 28.6573 -6.13149 175.663 78.6811 -13.0553 4.57705e-006 1.05463e-005 -2.19644 22.2454 -86.6708 25.1009 -5.18169e-006 -2.08293e-006 -2.25373 21.4149 62.9383 -15.4611 -8.35182 27.3304 5.09737 
54.3923 55.8376 -17.1925 7.59149 -5.11847 5.16753 -1.6264 -3.35069 -0.642802 -3.27625 -2.69634 -1.15695 -3.26092 -1.05297 -1.10182 -12.9988 46.5888 7.27574 9.89658 -16.9386 2.54432 80.2813 2.83521 -1.36084 83.5325 7.789 20.2493 4.1656e-007 1.84121e-007 -3.61842e-006 8.93712 6.85274 -1.46332 8.83646e-006 5.78448e-006 -3.00994 8.02904 -4.95147 0.697676 -89.1464 4.13021 2.11436 -71.4855 5.19965 -33.6838 1.58008e-005 -2.93677e-006 2.64796e-005 -0.973237 -0.0199014 0.951065 4.50182e-006 -1.14581e-007 3.0503 -8.03017 -4.95137 -0.697637 151.992 81.3162 34.5839 180 3.05016e-005 178.148 -61.2587 81.1858 62.2044 1.89536e-007 -7.33855e-006 2.8234 -20.1148 65.4506 17.4588 8.53513 28.652 -6.12788 175.622 78.6994 -13.0027 4.57705e-006 1.05463e-005 -2.19531 22.2327 -86.6681 25.0875 -5.18169e-006 -2.08293e-006 -2.25234 21.386 62.9228 -15.4531 -8.35217 27.3349 5.10052 
54.3915 55.8391 -17.1953 7.57718 -5.10592 5.18058 -1.61888 -3.34936 -0.643313 -3.26124 -2.69216 -1.15946 -3.2459 -1.04877 -1.10458 -13.205 46.6202 7.39681 10.0229 -16.9604 2.58039 80.2702 2.87266 -1.34514 83.514 7.691 20.2953 4.1656e-007 1.84121e-007 -3.61842e-006 8.92053 6.81767 -1.46 8.83646e-006 5.78448e-006 -3.00994 8.02904 -4.95147 0.697676 -89.1441 4.09467 2.12442 -71.5315 5.12784 -33.6392 1.58008e-005 -2.93677e-006 2.64796e-005 -1.01835 -0.0269993 0.93665 4.50182e-006 -1.14581e-007 3.04516 -8.03017 -4.95137 -0.697637 151.916 81.313 34.6694 180 3.05016e-005 178.147 -61.2462 81.193 62.1894 1.89536e-007 -7.33855e-006 2.82389 -20.1437 65.4656 17.4688 8.53456 28.6467 -6.1243 175.582 78.7173 -12.9508 4.57705e-006 1.05463e-005 -2.19417 22.2208 -86.6652 25.0749 -5.18169e-006 -2.08293e-006 -2.25094 21.3573 62.9073 -15.4451 -8.35251 27.3395 5.10368 
54.3914 55.8402 -17.1924 7.56226 -5.09397 5.1935 -1.61121 -3.34785 -0.64377 -3.24596 -2.68764 -1.16186 -3.2306 -1.04424 -1.10723 -13.4099 46.6511 7.51735 10.1476 -16.9813 2.61618 80.2598 2.90964 -1.32973 83.4948 7.59431 20.341 4.1656e-007 1.84121e-007 -3.61842e-006 8.90413 6.78333 -1.45676 8.83646e-006 5.78448e-006 -3.00994 8.02904 -4.95147 0.697676 -89.1405 4.05901 2.13436 -71.5792 5.05745 -33.5941 1.58008e-005 -2.93677e-006 2.64796e-005 -1.06316 -0.033221 0.92247 4.50182e-006 -1.14581e-007 3.0401 -8.03017 -4.95137 -0.697637 151.843 81.3092 34.7519 180 3.05016e-005 178.147 -61.2345 81.2004 62.175 1.89536e-007 -7.33855e-006 2.82436 -20.1721 65.4804 17.4787 8.53401 28.6416 -6.12083 175.545 78.7347 -12.9006 4.57705e-006 1.05463e-005 -2.19302 22.2113 -86.6623 25.0645 -5.18169e-006 -2.08293e-006 -2.24954 21.3285 62.8918 -15.4371 -8.35286 27.3441 5.10686 
54.3894 55.8412 -17.1933 7.54635 -5.08296 5.2062 -1.60333 -3.34604 -0.644141 -3.23025 -2.68258 -1.16407 -3.21487 -1.03916 -1.10971 -13.6127 46.6812 7.63694 10.2698 -17.0008 2.65149 80.2506 2.94589 -1.31475 83.4745 7.49966 20.3861 4.1656e-007 1.84121e-007 -3.61842e-006 8.88801 6.75013 -1.45361 8.83646e-006 5.78448e-006 -3.00994 8.02904 -4.95147 0.697676 -89.135 4.02315 2.14412 -71.6298 4.9894 -33.5484 1.58008e-005 -2.93677e-006 2.64796e-005 -1.10747 -0.0380407 0.908665 4.50182e-006 -1.14581e-007 3.03518 -8.03017 -4.95137 -0.697637 151.776 81.3045 34.8297 180 3.05016e-005 178.147 -61.2241 81.2082 62.1615 1.89536e-007 -7.33855e-006 2.82478 -20.1995 65.4946 17.4882 8.53351 28.6367 -6.11751 175.511 78.751 -12.8535 4.57705e-006 1.05463e-005 -2.19185 22.2055 -86.6591 25.0577 -5.18169e-006 -2.08293e-006 -2.24813 21.2999 62.8764 -15.4291 -8.35322 27.3487 5.11006 
54.3909 55.8418 -17.1878 7.52909 -5.07325 5.21859 -1.59516 -3.34383 -0.644392 -3.21393 -2.67678 -1.16603 -3.19854 -1.03334 -1.11194 -13.8124 46.7102 7.75518 10.3884 -17.0185 2.68616 80.243 2.98111 -1.30038 83.4526 7.4078 20.4305 4.1656e-007 1.84121e-007 -3.61842e-006 8.87228 6.7185 -1.45062 8.83646e-006 5.78448e-006 -3.00994 8.02904 -4.95147 0.697676 -89.1267 3.98702 2.15362 -71.6842 4.92458 -33.5017 1.58008e-005 -2.93677e-006 2.64796e-005 -1.15109 -0.0409327 0.895377 4.50182e-006 -1.14581e-007 3.03044 -8.03017 -4.95137 -0.697637 151.717 81.2987 34.9011 180 3.05016e-005 178.147 -61.2153 81.2165 62.1494 1.89536e-007 -7.33855e-006 2.82514 -20.2257 65.5082 17.4973 8.53308 28.632 -6.11441 175.482 78.766 -12.8106 4.57705e-006 1.05463e-005 -2.19064 22.2047 -86.6557 25.0556 -5.18169e-006 -2.08293e-006 -2.24672 21.2713 62.861 -15.4212 -8.35357 27.3534 5.11331 
54.3889 55.845 -17.1877 7.5101 -5.06521 5.2306 -1.5866 -3.34111 -0.644492 -3.19684 -2.67003 -1.16768 -3.18145 -1.02658 -1.11387 -14.0082 46.738 7.87164 10.5026 -17.0338 2.71999 80.2375 3.01504 -1.28679 83.4286 7.31948 20.4738 4.1656e-007 1.84121e-007 -3.61842e-006 8.85706 6.68888 -1.4478 8.83646e-006 5.78448e-006 -3.00994 8.02904 -4.95147 0.697676 -89.1151 3.95053 2.16279 -71.7438 4.86389 -33.4537 1.58008e-005 -2.93677e-006 2.64796e-005 -1.19383 -0.0413712 0.882745 4.50182e-006 -1.14581e-007 3.02594 -8.03017 -4.95137 -0.697637 151.666 81.2914 34.9642 180 3.05016e-005 178.146 -61.2087 81.2255 62.1391 1.89536e-007 -7.33855e-006 2.82543 -20.2504 65.521 17.5059 8.53272 28.6278 -6.11159 175.46 78.7791 -12.7733 4.57705e-006 1.05463e-005 -2.1894 22.2103 -86.6519 25.0596 -5.18169e-006 -2.08293e-006 -2.24531 21.2429 62.8457 -15.4134 -8.35394 27.3582 5.11662 
